<mxfile host="app.diagrams.net" modified="2023-09-01T17:33:46.905Z" agent="Mozilla/5.0 (Macintosh; Intel Mac OS X 10.15; rv:109.0) Gecko/20100101 Firefox/117.0" version="21.7.2" etag="k80LDQySnQrZWecyzmxZ" type="github">
  <diagram name="Page-1" id="rjnV7G3rpcKfMLyZ1XJY">
    <mxGraphModel>
      <root>
        <mxCell id="0" />
        <mxCell id="1" parent="0" />
      </root>
    </mxGraphModel>
  </diagram>
</mxfile>
